<?xml version="1.0" encoding="UTF-8"?>
<!DOCTYPE svg PUBLIC "-//W3C//DTD SVG 1.1//EN" "http://www.w3.org/Graphics/SVG/1.1/DTD/svg11.dtd">
<!-- Creator: CorelDRAW 2019 (64-Bit) -->
<svg xmlns="http://www.w3.org/2000/svg" xml:space="preserve" width="10.8057mm" height="6.3475mm" version="1.1" style="shape-rendering:geometricPrecision; text-rendering:geometricPrecision; image-rendering:optimizeQuality; fill-rule:evenodd; clip-rule:evenodd"
viewBox="0 0 9.92 5.83"
 xmlns:xlink="http://www.w3.org/1999/xlink"
 xmlns:xodm="http://www.corel.com/coreldraw/odm/2003">
 <defs>
  <style type="text/css">
   <![CDATA[
    .fil7 {fill:#E73845;fill-rule:nonzero}
    .fil3 {fill:#FDDC43;fill-rule:nonzero}
    .fil2 {fill:#FDD205;fill-rule:nonzero}
    .fil5 {fill:#D92226;fill-rule:nonzero}
    .fil4 {fill:#B8D160;fill-rule:nonzero}
    .fil1 {fill:#84BC30;fill-rule:nonzero}
    .fil6 {fill:#5686C5;fill-rule:nonzero}
    .fil0 {fill:#436CB2;fill-rule:nonzero}
    .fil8 {fill:#010101;fill-rule:nonzero}
    .fil9 {fill:#1CAFEC;fill-rule:nonzero}
   ]]>
  </style>
 </defs>
<symbol id="Fm0-13-0" viewBox="-493.08 -417.83 9.26 7.44">
 <path class="fil0" d="M-492.43 -415.51c0,0 -0.22,-0.18 -0.25,-0.23 -0.02,-0.05 1.24,-0.32 1.79,-0.12 0,0 0.06,0.05 -0.21,0.25 -0.26,0.19 -1.34,0.11 -1.34,0.11z"/>
 <path class="fil1" d="M-491.88 -410.45c0,0 0.2,0.08 0.67,0.05 0.48,-0.03 0.55,-0.15 0.55,-0.2 -0.03,-0.8 -0.12,-2.19 -0.22,-3.33 -0.09,-0.94 -0.2,-1.69 -0.2,-1.69 0,0 -0.7,-0.17 -1.34,0.11 0,0 0.43,4.51 0.54,5.06z"/>
 <path class="fil2" d="M-492.67 -415.75c0,0 -0.13,0.03 -0.16,-0.16 -0.02,-0.2 -0.09,-0.29 0.01,-0.33 0.1,-0.04 0.51,-0.15 1.07,-0.19 0.57,-0.05 1,0.05 1,0.12 0,0.07 -0.01,0.43 -0.06,0.48 -0.06,0.05 -0.53,-0.12 -0.95,-0.09 -0.42,0.04 -0.91,0.18 -0.91,0.18z"/>
 <path class="fil3" d="M-492.06 -416.32c0,0 1.24,-0.06 1.25,0.04 0.01,0.1 -0.01,0.34 -0.09,0.35 -0.07,0.01 -0.03,-0.17 -0.1,-0.22 -0.06,-0.05 -1.15,0.01 -1.18,-0.05 -0.04,-0.06 -0.05,-0.1 0.12,-0.12z"/>
 <path class="fil4" d="M-491.25 -415.51l0.39 4.57 -0.24 0.14c0,0 -0.38,-4.47 -0.37,-4.61 0,-0.14 0.17,-0.18 0.22,-0.1z"/>
 <path class="fil0" d="M-484.47 -415.51c0,0 0.22,-0.18 0.25,-0.23 0.02,-0.05 -1.24,-0.32 -1.79,-0.12 0,0 -0.06,0.05 0.21,0.25 0.26,0.19 1.34,0.11 1.34,0.11z"/>
 <path class="fil1" d="M-485.01 -410.45c0,0 -0.2,0.08 -0.67,0.05 -0.48,-0.03 -0.55,-0.15 -0.55,-0.2 0.03,-0.8 0.12,-2.19 0.22,-3.33 0.09,-0.94 0.2,-1.69 0.2,-1.69 0,0 0.7,-0.17 1.34,0.11 0,0 -0.43,4.51 -0.54,5.06z"/>
 <path class="fil2" d="M-484.23 -415.75c0,0 0.13,0.03 0.16,-0.16 0.02,-0.2 0.09,-0.29 -0.01,-0.33 -0.1,-0.04 -0.51,-0.15 -1.07,-0.19 -0.57,-0.05 -1,0.05 -1,0.12 -0,0.07 0.01,0.43 0.06,0.48 0.06,0.05 0.53,-0.12 0.95,-0.09 0.42,0.04 0.91,0.18 0.91,0.18z"/>
 <path class="fil3" d="M-484.84 -416.32c0,0 -1.24,-0.06 -1.25,0.04 -0.01,0.1 0.01,0.34 0.09,0.35 0.07,0.01 0.03,-0.17 0.1,-0.22 0.06,-0.05 1.15,0.01 1.18,-0.05 0.04,-0.06 0.05,-0.1 -0.12,-0.12z"/>
 <path class="fil4" d="M-485.65 -415.51l-0.39 4.57 0.24 0.14c0,0 0.38,-4.47 0.37,-4.61 -0,-0.14 -0.17,-0.18 -0.22,-0.1z"/>
 <path class="fil5" d="M-491.01 -414.59c0,0 2.79,-0.32 5.14,-0.01 0,0 0.17,0.46 -0.02,0.86 0,0 -1.9,0.07 -2.54,0.07 -0.63,0 -2.53,-0.07 -2.53,-0.07 0,0 -0.22,-0.3 -0.05,-0.85z"/>
 <path class="fil0" d="M-491.1 -415.44c0,0 2.89,-0.32 5.33,-0.01 0,0 0.18,0.46 -0.03,0.86 0,0 -1.97,0.07 -2.63,0.07 -0.65,0 -2.62,-0.07 -2.62,-0.07 0,0 -0.23,-0.3 -0.05,-0.85z"/>
 <path class="fil6" d="M-490.88 -415.29c0,0 1.25,-0.1 2.32,-0.12 1.06,-0.02 2.53,0.06 2.59,0.12 0.06,0.06 -2.5,0.07 -3.27,0.07 -0.77,0 -1.66,0.11 -1.64,-0.07z"/>
 <path class="fil7" d="M-485.97 -413.93c0,0 -1.25,0.1 -2.32,0.12 -1.07,0.02 -2.53,-0.06 -2.59,-0.12 -0.06,-0.06 2.5,-0.07 3.27,-0.07 0.77,0 1.66,-0.11 1.64,0.07z"/>
 <path class="fil0" d="M-486.22 -417.63c0,0 0.08,-0.21 0.47,-0.15 0.41,0.06 0.02,0.42 0.31,0.38 0.29,-0.04 0,-0.32 0.28,-0.36 0.28,-0.05 0.37,-0.01 0.39,0.04 0.02,0.04 -0.02,0.28 0.08,0.31 0.1,0.02 0.21,0.05 0.27,-0.17 0.05,-0.21 0.58,-0.15 0.59,-0.04 0.07,1.05 -0.19,1.42 -0.22,1.41 -0.17,-0.04 -0.55,-0.19 -0.97,-0.19 -0.38,-0.01 -0.8,-0 -1.11,0.08 -0.01,0 -0.17,-0.53 -0.08,-1.3z"/>
 <path class="fil6" d="M-484 -417.64c0,0 -0.29,-0.03 -0.32,0.01 -0.03,0.05 -0.04,0.23 -0.13,0.25 -0.09,0.02 -0.25,-0.01 -0.24,0.03 0.01,0.04 0.32,0.08 0.39,0.05 0.07,-0.03 0.08,-0.18 0.24,-0.17 0.17,0.01 0.19,-0.16 0.06,-0.17z"/>
 <path class="fil6" d="M-484.97 -417.71c0,0 -0.23,-0.04 -0.24,0.02 -0.02,0.06 0,0.29 -0.08,0.31 -0.08,0.02 -0.26,0.02 -0.26,0.04 -0,0.02 0.27,0.05 0.36,0.02 0.1,-0.04 0.07,-0.23 0.19,-0.22 0.12,0.01 0.14,-0.15 0.03,-0.17z"/>
 <path class="fil6" d="M-485.79 -417.73c0,0 -0.32,-0.04 -0.37,0.08 -0.05,0.11 -0.04,1.07 0.04,1.2 0.09,0.13 0.27,-0.16 0.18,-0.63 -0.08,-0.44 0.26,-0.35 0.3,-0.47 0.04,-0.12 -0.01,-0.17 -0.15,-0.17z"/>
 <path class="fil0" d="M-493.08 -417.48c0,0 0.05,-0.21 0.45,-0.21 0.42,0.01 0.07,0.41 0.35,0.34 0.29,-0.07 -0.04,-0.31 0.23,-0.39 0.27,-0.08 0.37,-0.05 0.39,-0.01 0.02,0.04 0.01,0.28 0.11,0.29 0.1,0.01 0.22,0.02 0.24,-0.2 0.03,-0.21 0.56,-0.22 0.58,-0.11 0.2,1.03 -0.02,1.43 -0.05,1.43 -0.17,-0.02 -0.57,-0.12 -0.99,-0.08 -0.38,0.04 -0.79,0.09 -1.09,0.22 -0.01,0.01 -0.23,-0.5 -0.24,-1.29z"/>
 <path class="fil6" d="M-490.88 -417.76c0,0 -0.29,0 -0.31,0.05 -0.02,0.05 -0.01,0.23 -0.1,0.27 -0.09,0.03 -0.25,0.02 -0.23,0.06 0.02,0.04 0.32,0.04 0.4,-0 0.07,-0.04 0.05,-0.19 0.22,-0.2 0.17,-0.01 0.17,-0.18 0.04,-0.17z"/>
 <path class="fil6" d="M-491.85 -417.71c0,0 -0.23,-0.02 -0.24,0.05 -0.01,0.06 0.04,0.28 -0.04,0.32 -0.08,0.03 -0.26,0.05 -0.25,0.07 0,0.02 0.27,0.02 0.36,-0.03 0.09,-0.05 0.04,-0.23 0.16,-0.24 0.12,-0.01 0.12,-0.17 0.01,-0.17z"/>
 <path class="fil6" d="M-492.67 -417.63c0,0 -0.32,0 -0.36,0.12 -0.04,0.12 0.09,1.06 0.19,1.18 0.1,0.12 0.25,-0.19 0.1,-0.65 -0.14,-0.42 0.21,-0.38 0.24,-0.5 0.03,-0.12 -0.03,-0.16 -0.17,-0.16z"/>
</symbol>
 <g id="Layer_x0020_1">
  <metadata id="CorelCorpID_0Corel-Layer"/>
  <g id="_2410018549408">
   <g id="__x0023_ffffffff">
   </g>
   <g id="__x0023_010101ff">
    <path class="fil8" d="M1.74 0c0.83,0 1.67,-0 2.5,0 0,0.04 -0,0.12 -0,0.16 -0.24,-0.01 -0.52,-0 -0.71,0.18 -0.13,0.15 -0.11,0.36 -0.12,0.54 -0,0.79 -0,1.59 -0,2.38 -0.28,0.02 -0.56,0.02 -0.83,0.01 0,-0.81 0,-1.63 -0,-2.44 -0.01,-0.18 -0,-0.41 -0.17,-0.53 -0.19,-0.15 -0.44,-0.15 -0.66,-0.14 -0,-0.04 -0,-0.12 -0,-0.17z"/>
    <path class="fil8" d="M5.26 0c0.84,0 1.67,-0 2.51,0 -0,0.04 -0,0.12 -0,0.17 -0.23,-0.01 -0.48,-0.01 -0.67,0.14 -0.15,0.11 -0.15,0.31 -0.17,0.48 -0.01,0.49 -0,0.99 -0,1.48 -0.27,0.14 -0.55,0.25 -0.83,0.37 -0,-0.58 0,-1.16 -0,-1.74 -0.01,-0.17 0.01,-0.36 -0.1,-0.51 -0.18,-0.21 -0.48,-0.22 -0.74,-0.21 0,-0.04 -0,-0.12 -0,-0.17z"/>
    <path class="fil8" d="M2.57 4.89c0.28,-0.01 0.56,-0.04 0.83,-0.09 0.02,0.22 -0.02,0.45 0.09,0.65 0.18,0.21 0.48,0.24 0.74,0.23 0,0.04 0,0.12 0,0.16 -0.83,0 -1.67,-0 -2.5,0 0,-0.05 0,-0.11 0,-0.16 0.25,0.01 0.53,0.01 0.71,-0.19 0.12,-0.17 0.11,-0.39 0.12,-0.59z"/>
   </g>
   <g id="__x0023_1cafecff">
    <path class="fil9" d="M6.23 2.89c1.4,-0.55 2.73,-1.38 3.69,-2.56 -0.26,0.61 -0.71,1.11 -1.19,1.56 -0.75,0.68 -1.61,1.22 -2.51,1.67 -0.96,0.47 -1.98,0.83 -3.04,0.98 -0.68,0.08 -1.41,0.1 -2.05,-0.18 -0.44,-0.19 -0.85,-0.51 -1.02,-0.96 -0.18,-0.46 -0.08,-0.99 0.15,-1.42 0.36,-0.66 1,-1.17 1.73,-1.36 0.09,-0.03 0.19,-0.03 0.29,-0.03 -0.63,0.19 -1.16,0.7 -1.36,1.33 -0.1,0.31 -0.09,0.67 0.09,0.96 0.16,0.27 0.45,0.44 0.75,0.54 0.46,0.15 0.96,0.17 1.45,0.15 1.05,-0.05 2.08,-0.3 3.05,-0.68z"/>
    <path class="fil9" d="M6.1 3.93c0.28,-0.13 0.56,-0.27 0.83,-0.42 0,0.5 -0.01,1.01 0.01,1.51 0.02,0.17 0,0.38 0.16,0.5 0.19,0.15 0.45,0.16 0.68,0.15 -0,0.04 -0,0.12 -0,0.16 -0.83,0 -1.67,0 -2.5,-0 -0,-0.05 -0,-0.11 -0,-0.16 0.23,0 0.49,0.01 0.67,-0.15 0.13,-0.11 0.14,-0.29 0.16,-0.44 0.02,-0.38 0,-0.77 0.01,-1.15z"/>
   </g>
  </g>
 </g>
</svg>
