<?xml version="1.0" encoding="UTF-8"?>
<!DOCTYPE svg PUBLIC "-//W3C//DTD SVG 1.1//EN" "http://www.w3.org/Graphics/SVG/1.1/DTD/svg11.dtd">
<!-- Creator: CorelDRAW 2019 (64-Bit) -->
<svg xmlns="http://www.w3.org/2000/svg" xml:space="preserve" width="7.0575mm" height="4.6463mm" version="1.1" style="shape-rendering:geometricPrecision; text-rendering:geometricPrecision; image-rendering:optimizeQuality; fill-rule:evenodd; clip-rule:evenodd"
viewBox="0 0 4.15 2.73"
 xmlns:xlink="http://www.w3.org/1999/xlink"
 xmlns:xodm="http://www.corel.com/coreldraw/odm/2003">
 <defs>
  <style type="text/css">
   <![CDATA[
    .str0 {stroke:#1CAFEC;stroke-width:0.1;stroke-miterlimit:22.9256}
    .fil7 {fill:#E73845;fill-rule:nonzero}
    .fil3 {fill:#FDDC43;fill-rule:nonzero}
    .fil2 {fill:#FDD205;fill-rule:nonzero}
    .fil5 {fill:#D92226;fill-rule:nonzero}
    .fil4 {fill:#B8D160;fill-rule:nonzero}
    .fil1 {fill:#84BC30;fill-rule:nonzero}
    .fil6 {fill:#5686C5;fill-rule:nonzero}
    .fil0 {fill:#436CB2;fill-rule:nonzero}
    .fil8 {fill:#1C1B17;fill-rule:nonzero}
    .fil9 {fill:#010101;fill-rule:nonzero}
    .fil10 {fill:#1CAFEC;fill-rule:nonzero}
    .fil11 {fill:#1CAFEC;fill-rule:nonzero}
   ]]>
  </style>
 </defs>
<symbol id="Fm0-13-0" viewBox="-322.64 -272.31 5.93 4.76">
 <path class="fil0" d="M-322.22 -270.82c0,0 -0.14,-0.12 -0.16,-0.15 -0.02,-0.03 0.79,-0.2 1.15,-0.08 0,0 0.04,0.03 -0.13,0.16 -0.17,0.12 -0.86,0.07 -0.86,0.07z"/>
 <path class="fil1" d="M-321.87 -267.58c0,0 0.13,0.05 0.43,0.03 0.31,-0.02 0.35,-0.1 0.35,-0.13 -0.02,-0.51 -0.07,-1.41 -0.14,-2.13 -0.06,-0.6 -0.13,-1.08 -0.13,-1.08 0,0 -0.45,-0.11 -0.86,0.07 0,0 0.28,2.89 0.35,3.24z"/>
 <path class="fil2" d="M-322.38 -270.97c0,0 -0.08,0.02 -0.1,-0.1 -0.02,-0.13 -0.06,-0.19 0.01,-0.21 0.06,-0.03 0.32,-0.09 0.69,-0.12 0.36,-0.03 0.64,0.03 0.64,0.07 0,0.04 -0.01,0.28 -0.04,0.31 -0.04,0.03 -0.34,-0.08 -0.61,-0.06 -0.27,0.02 -0.59,0.11 -0.59,0.11z"/>
 <path class="fil3" d="M-321.99 -271.33c0,0 0.79,-0.04 0.8,0.03 0,0.06 -0.01,0.22 -0.06,0.22 -0.05,0 -0.02,-0.11 -0.06,-0.14 -0.04,-0.03 -0.73,0 -0.76,-0.03 -0.02,-0.04 -0.04,-0.06 0.08,-0.07z"/>
 <path class="fil4" d="M-321.47 -270.82l0.25 2.93 -0.15 0.09c0,0 -0.24,-2.87 -0.24,-2.96 0,-0.09 0.11,-0.12 0.14,-0.06z"/>
 <path class="fil0" d="M-317.13 -270.82c0,0 0.14,-0.12 0.16,-0.15 0.02,-0.03 -0.79,-0.2 -1.15,-0.08 0,0 -0.04,0.03 0.13,0.16 0.17,0.12 0.86,0.07 0.86,0.07z"/>
 <path class="fil1" d="M-317.47 -267.58c0,0 -0.13,0.05 -0.43,0.03 -0.31,-0.02 -0.35,-0.1 -0.35,-0.13 0.02,-0.51 0.07,-1.41 0.14,-2.13 0.06,-0.6 0.13,-1.08 0.13,-1.08 0,0 0.45,-0.11 0.86,0.07 0,0 -0.28,2.89 -0.35,3.24z"/>
 <path class="fil2" d="M-316.97 -270.97c0,0 0.08,0.02 0.1,-0.1 0.02,-0.13 0.06,-0.19 -0.01,-0.21 -0.06,-0.03 -0.32,-0.09 -0.69,-0.12 -0.36,-0.03 -0.64,0.03 -0.64,0.07 -0,0.04 0.01,0.28 0.04,0.31 0.04,0.03 0.34,-0.08 0.61,-0.06 0.27,0.02 0.59,0.11 0.59,0.11z"/>
 <path class="fil3" d="M-317.36 -271.33c0,0 -0.79,-0.04 -0.8,0.03 -0,0.06 0.01,0.22 0.06,0.22 0.05,0 0.02,-0.11 0.06,-0.14 0.04,-0.03 0.73,0 0.76,-0.03 0.02,-0.04 0.04,-0.06 -0.08,-0.07z"/>
 <path class="fil4" d="M-317.88 -270.82l-0.25 2.93 0.15 0.09c0,0 0.24,-2.87 0.24,-2.96 -0,-0.09 -0.11,-0.12 -0.14,-0.06z"/>
 <path class="fil5" d="M-321.31 -270.23c0,0 1.79,-0.2 3.29,-0.01 0,0 0.11,0.3 -0.02,0.55 0,0 -1.22,0.04 -1.62,0.04 -0.4,0 -1.62,-0.04 -1.62,-0.04 0,0 -0.14,-0.19 -0.03,-0.54z"/>
 <path class="fil0" d="M-321.37 -270.77c0,0 1.85,-0.2 3.41,-0.01 0,0 0.12,0.3 -0.02,0.55 0,0 -1.26,0.04 -1.68,0.04 -0.42,0 -1.68,-0.04 -1.68,-0.04 0,0 -0.15,-0.19 -0.03,-0.54z"/>
 <path class="fil6" d="M-321.23 -270.68c0,0 0.8,-0.07 1.49,-0.08 0.68,-0.01 1.62,0.04 1.66,0.08 0.04,0.04 -1.6,0.04 -2.1,0.04 -0.5,0 -1.06,0.07 -1.05,-0.04z"/>
 <path class="fil7" d="M-318.08 -269.8c0,0 -0.8,0.07 -1.49,0.08 -0.68,0.01 -1.62,-0.04 -1.66,-0.08 -0.04,-0.04 1.6,-0.04 2.1,-0.04 0.5,0 1.06,-0.07 1.05,0.04z"/>
 <path class="fil0" d="M-318.24 -272.18c0,0 0.05,-0.13 0.3,-0.1 0.27,0.04 0.01,0.27 0.2,0.24 0.19,-0.02 0,-0.2 0.18,-0.23 0.18,-0.03 0.24,-0 0.25,0.02 0.01,0.03 -0.02,0.18 0.05,0.2 0.07,0.02 0.14,0.03 0.17,-0.11 0.03,-0.13 0.37,-0.1 0.38,-0.03 0.04,0.67 -0.12,0.91 -0.14,0.9 -0.11,-0.02 -0.35,-0.12 -0.62,-0.12 -0.24,-0.01 -0.51,-0 -0.71,0.05 -0.01,0 -0.11,-0.34 -0.05,-0.84z"/>
 <path class="fil6" d="M-316.82 -272.18c0,0 -0.19,-0.02 -0.2,0.01 -0.02,0.03 -0.02,0.15 -0.09,0.16 -0.06,0.01 -0.16,-0.01 -0.15,0.02 0.01,0.03 0.2,0.05 0.25,0.03 0.05,-0.02 0.05,-0.12 0.15,-0.11 0.11,0.01 0.12,-0.1 0.04,-0.11z"/>
 <path class="fil6" d="M-317.44 -272.23c0,0 -0.15,-0.03 -0.16,0.01 -0.01,0.04 0,0.18 -0.05,0.2 -0.05,0.01 -0.17,0.01 -0.17,0.03 -0,0.01 0.17,0.03 0.23,0.01 0.06,-0.02 0.04,-0.14 0.12,-0.14 0.08,0 0.09,-0.1 0.02,-0.11z"/>
 <path class="fil6" d="M-317.97 -272.24c0,0 -0.21,-0.02 -0.24,0.05 -0.03,0.07 -0.03,0.68 0.03,0.77 0.05,0.09 0.17,-0.1 0.12,-0.41 -0.05,-0.28 0.17,-0.22 0.19,-0.3 0.03,-0.07 -0,-0.11 -0.1,-0.11z"/>
 <path class="fil0" d="M-322.64 -272.08c0,0 0.03,-0.14 0.29,-0.13 0.27,0 0.05,0.26 0.23,0.22 0.18,-0.05 -0.02,-0.2 0.15,-0.25 0.17,-0.05 0.24,-0.03 0.25,-0.01 0.01,0.03 0.01,0.18 0.07,0.19 0.07,0.01 0.14,0.01 0.16,-0.13 0.02,-0.14 0.36,-0.14 0.37,-0.07 0.12,0.66 -0.01,0.92 -0.03,0.91 -0.11,-0.01 -0.36,-0.08 -0.63,-0.05 -0.24,0.02 -0.51,0.06 -0.7,0.14 -0.01,0 -0.15,-0.32 -0.15,-0.82z"/>
 <path class="fil6" d="M-321.23 -272.26c0,0 -0.19,0 -0.2,0.03 -0.01,0.03 -0.01,0.15 -0.07,0.17 -0.06,0.02 -0.16,0.01 -0.15,0.04 0.01,0.03 0.21,0.02 0.25,-0 0.04,-0.02 0.03,-0.12 0.14,-0.13 0.11,-0 0.11,-0.12 0.02,-0.11z"/>
 <path class="fil6" d="M-321.85 -272.22c0,0 -0.15,-0.01 -0.15,0.03 -0.01,0.04 0.02,0.18 -0.03,0.2 -0.05,0.02 -0.16,0.03 -0.16,0.05 0,0.01 0.17,0.01 0.23,-0.02 0.06,-0.03 0.03,-0.15 0.1,-0.15 0.08,-0.01 0.08,-0.11 0.01,-0.11z"/>
 <path class="fil6" d="M-322.38 -272.18c0,0 -0.21,0 -0.23,0.08 -0.02,0.08 0.06,0.68 0.12,0.76 0.06,0.08 0.16,-0.12 0.07,-0.42 -0.09,-0.27 0.14,-0.24 0.15,-0.32 0.02,-0.08 -0.02,-0.1 -0.11,-0.1z"/>
</symbol>
 <g id="Layer_x0020_1">
  <metadata id="CorelCorpID_0Corel-Layer"/>
  <path class="fil8" d="M0.3 0.02c0.42,0 0.85,-0 1.27,0 0,0.02 -0,0.06 -0,0.08 -0.12,-0 -0.27,-0 -0.36,0.09 -0.07,0.08 -0.06,0.18 -0.06,0.28 -0,0.4 -0.01,1 -0.01,1.41 -0.14,0.01 -0.26,0.1 -0.4,0.1 0,-0.41 -0.02,-1.12 -0.02,-1.53 -0.01,-0.09 -0,-0.21 -0.08,-0.27 -0.1,-0.08 -0.22,-0.08 -0.34,-0.07 -0,-0.02 -0,-0.06 -0,-0.08z"/>
  <path class="fil9" d="M2.1 0c0.43,0 0.85,-0 1.28,0 -0,0.02 -0,0.06 -0,0.08 -0.12,-0 -0.24,-0 -0.34,0.07 -0.08,0.06 -0.08,0.16 -0.08,0.25 -0.01,0.25 0,0.52 0,0.77 -0.14,0.07 -0.28,0.11 -0.43,0.17 -0,-0.3 0,-0.59 -0,-0.89 -0.01,-0.09 0,-0.19 -0.05,-0.26 -0.09,-0.11 -0.24,-0.11 -0.38,-0.11 0,-0.02 -0,-0.06 -0,-0.08z"/>
  <path class="fil9" d="M0.73 2.24c0.14,-0.01 0.28,-0.06 0.42,-0.08 0.01,0.11 -0.01,0.23 0.05,0.33 0.09,0.11 0.25,0.12 0.38,0.11 0,0.02 0,0.06 0,0.08 -0.42,0 -0.85,-0 -1.27,0 0,-0.03 0,-0.06 0,-0.08 0.13,0 0.27,0.01 0.36,-0.09 0.06,-0.09 0.05,-0.17 0.06,-0.27z"/>
  <path class="fil10" d="M2.52 1.67c0.14,-0.07 0.29,-0.04 0.42,-0.12 0,0.26 -0,0.51 0,0.77 0.01,0.09 0,0.19 0.08,0.25 0.1,0.08 0.23,0.08 0.35,0.08 -0,0.02 -0,0.06 -0,0.08 -0.43,0 -0.85,0 -1.28,-0 -0,-0.03 -0,-0.05 -0,-0.08 0.12,0 0.25,0.01 0.34,-0.08 0.07,-0.05 0.07,-0.15 0.08,-0.22 0.01,-0.19 0,-0.48 0,-0.68z"/>
  <g id="_2409640353136">
   <g id="__x0023_f6f6f6ff">
   </g>
   <g id="__x0023_241906ff">
    <path class="fil11 str0" d="M2.55 1.45c0.27,-0.1 0.54,-0.22 0.84,-0.24 0.14,-0.02 0.29,-0.01 0.43,0.03 0.1,0.03 0.21,0.08 0.26,0.18 0.04,0.07 0.02,0.16 -0.04,0.21 -0.06,0.06 -0.14,0.1 -0.23,0.12 -0.08,0.01 -0.17,0.03 -0.25,0 -0.05,-0.02 -0.1,-0.04 -0.12,-0.08 -0.01,-0.03 -0.01,-0.06 -0.01,-0.08 0.01,-0 0.03,-0 0.04,-0.01 -0.01,0.02 -0.01,0.05 -0,0.07 0.05,0.06 0.12,0.07 0.19,0.08 0.12,0 0.24,-0.02 0.33,-0.1 0.04,-0.04 0.08,-0.09 0.07,-0.15 -0,-0.07 -0.06,-0.11 -0.11,-0.14 -0.11,-0.04 -0.23,-0.04 -0.35,-0.03 -0.16,0.02 -0.32,0.03 -0.47,0.07 -0.34,0.09 -0.67,0.21 -1,0.33 -0.32,0.12 -0.64,0.24 -0.97,0.34 -0.2,0.06 -0.4,0.09 -0.61,0.1 -0.14,0 -0.29,-0.01 -0.41,-0.09 -0.06,-0.04 -0.11,-0.12 -0.08,-0.19 0,-0.02 0.03,-0.02 0.05,-0.02 -0.01,0.03 -0.03,0.05 -0.02,0.08 0.01,0.05 0.05,0.08 0.09,0.11 0.11,0.06 0.23,0.07 0.36,0.07 0.12,-0.01 0.23,-0.02 0.35,-0.04 0.37,-0.07 0.72,-0.22 1.07,-0.37 0.2,-0.09 0.4,-0.17 0.6,-0.25z"/>
   </g>
  </g>
 </g>
</svg>
